<svg version="1.1" id="Layer_1" xmlns="http://www.w3.org/2000/svg" xmlns:xlink="http://www.w3.org/1999/xlink" x="0px" y="0px"
	 width="100%" viewBox="0 0 1024 1024" enable-background="new 0 0 1024 1024" xml:space="preserve">
<path fill="#EBECE6" opacity="0.000000" stroke="none"
	d="
M645.000000,1025.000000
	C430.000000,1025.000000 215.500000,1025.000000 1.000000,1025.000000
	C1.000000,683.666687 1.000000,342.333344 1.000000,1.000000
	C342.333344,1.000000 683.666687,1.000000 1025.000000,1.000000
	C1025.000000,342.333344 1025.000000,683.666687 1025.000000,1025.000000
	C898.500000,1025.000000 772.000000,1025.000000 645.000000,1025.000000
M686.000000,258.001221
	C686.000000,258.001221 685.982788,257.973419 685.291992,258.060760
	C676.939880,262.515320 673.299622,269.684937 673.295227,278.931396
	C673.272522,327.050079 673.251648,375.168762 673.253723,423.287445
	C673.253784,424.937531 673.503784,426.587646 673.323914,429.050354
	C671.573242,429.765228 669.824890,431.097809 668.071655,431.104187
	C629.080078,431.245514 590.088013,431.228394 551.096008,431.269836
	C537.085938,431.284729 528.202515,440.023041 528.189575,453.979248
	C528.154297,492.137939 528.175476,530.296753 528.247620,568.455383
	C528.274719,582.806274 537.441406,591.800232 551.739502,591.806030
	C570.068909,591.813538 588.401001,591.660767 606.726990,591.923035
	C634.063965,592.314148 654.913208,613.481079 654.980530,640.771606
	C655.068054,676.264160 654.999207,711.757019 655.026489,747.249756
	C655.036621,760.398621 663.775146,769.725525 676.902771,770.245178
	C686.220642,770.614075 695.557922,770.565918 704.886597,770.577332
	C735.046997,770.614441 765.207520,770.639282 795.367737,770.573242
	C808.756226,770.543945 817.229675,762.714722 818.462036,749.335510
	C818.797241,745.695923 818.721069,742.012390 818.722046,738.348999
	C818.747375,640.202576 818.750671,542.056091 818.774170,443.909637
	C818.787354,389.087494 818.847595,334.265381 818.847778,279.443237
	C818.847839,264.060394 809.943604,255.188599 794.634827,255.188232
	C762.974670,255.187454 731.314392,255.158035 699.654724,255.288620
	C696.090820,255.303314 692.530823,256.271271 688.289246,256.804596
	C687.517395,257.196747 686.745483,257.588867 686.000000,258.001221
M369.112152,435.027039
	C362.599213,439.618835 359.733582,445.948486 359.770447,453.859528
	C359.849670,470.851410 359.765442,487.843994 359.770844,504.836273
	C359.796539,585.800049 359.818359,666.763855 359.871857,747.727661
	C359.880646,761.032104 368.526764,770.402100 381.191772,770.411621
	C418.173920,770.439331 455.156494,770.320923 492.138275,770.132629
	C502.636719,770.079224 509.888641,764.204590 513.221313,753.233276
	C513.436340,751.088623 513.838074,748.944031 513.839233,746.799255
	C513.875549,681.167664 513.875122,615.536011 513.863403,549.904419
	C513.863098,547.915649 513.681335,545.926941 513.733337,543.031921
	C513.694336,539.040588 513.655334,535.049316 513.839966,530.137085
	C513.850342,504.859833 513.875977,479.582581 513.838501,454.305420
	C513.835876,452.524139 513.367371,450.743591 513.117676,448.211243
	C512.915833,447.498108 512.713989,446.784973 512.436096,445.395325
	C508.417267,435.288605 500.536041,431.115784 490.115662,431.107239
	C454.199524,431.077850 418.282318,430.997223 382.368530,431.297089
	C378.155090,431.332245 373.960419,433.610809 369.112152,435.027039
M616.500000,255.149612
	C488.042480,255.133850 359.584991,255.121216 231.127472,255.098022
	C216.455338,255.095367 206.988297,264.417877 206.980759,279.033447
	C206.961334,316.687683 206.977158,354.341919 206.967255,391.996155
	C206.963120,407.740753 215.948120,416.804871 231.701218,416.809845
	C270.854950,416.822235 310.008698,416.785339 349.162445,416.796783
	C444.464081,416.824707 539.765686,416.874542 635.067322,416.900421
	C649.467957,416.904327 658.901489,407.472198 658.901062,393.172943
	C658.901001,390.507172 658.909424,387.841431 658.909851,385.175659
	C658.915588,349.687378 658.961365,314.199036 658.905945,278.710846
	C658.883484,264.336853 649.805847,255.327820 635.493774,255.219925
	C629.495972,255.174698 623.497925,255.172089 616.500000,255.149612
z"/>
<path fill="#F2A71B" opacity="1.000000" stroke="none"
	d="
M688.969055,256.797180
	C692.530823,256.271271 696.090820,255.303314 699.654724,255.288620
	C731.314392,255.158035 762.974670,255.187454 794.634827,255.188232
	C809.943604,255.188599 818.847839,264.060394 818.847778,279.443237
	C818.847595,334.265381 818.787354,389.087494 818.774170,443.909637
	C818.750671,542.056091 818.747375,640.202576 818.722046,738.348999
	C818.721069,742.012390 818.797241,745.695923 818.462036,749.335510
	C817.229675,762.714722 808.756226,770.543945 795.367737,770.573242
	C765.207520,770.639282 735.046997,770.614441 704.886597,770.577332
	C695.557922,770.565918 686.220642,770.614075 676.902771,770.245178
	C663.775146,769.725525 655.036621,760.398621 655.026489,747.249756
	C654.999207,711.757019 655.068054,676.264160 654.980530,640.771606
	C654.913208,613.481079 634.063965,592.314148 606.726990,591.923035
	C588.401001,591.660767 570.068909,591.813538 551.739502,591.806030
	C537.441406,591.800232 528.274719,582.806274 528.247620,568.455383
	C528.175476,530.296753 528.154297,492.137939 528.189575,453.979248
	C528.202515,440.023041 537.085938,431.284729 551.096008,431.269836
	C590.088013,431.228394 629.080078,431.245514 668.071655,431.104187
	C669.824890,431.097809 671.573242,429.765228 673.601318,428.880798
	C674.111450,429.125671 674.344177,429.540070 674.576904,429.954468
	C674.687500,429.864136 674.891296,429.776978 674.894470,429.683044
	C674.944763,428.196381 674.995605,426.708801 674.995789,425.221466
	C675.000671,376.275055 675.017029,327.328674 674.977112,278.382294
	C674.972595,272.782440 676.662354,267.966675 680.546692,263.911133
	C682.402405,261.973694 684.173401,259.955200 685.982788,257.973450
	C685.982788,257.973419 686.000000,258.001221 686.335571,257.987061
	C687.437134,257.581024 688.203064,257.189087 688.969055,256.797180
z"/>
<path fill="#011F26" opacity="1.000000" stroke="none"
	d="
M617.000000,255.149872
	C623.497925,255.172089 629.495972,255.174698 635.493774,255.219925
	C649.805847,255.327820 658.883484,264.336853 658.905945,278.710846
	C658.961365,314.199036 658.915588,349.687378 658.909851,385.175659
	C658.909424,387.841431 658.901001,390.507172 658.901062,393.172943
	C658.901489,407.472198 649.467957,416.904327 635.067322,416.900421
	C539.765686,416.874542 444.464081,416.824707 349.162445,416.796783
	C310.008698,416.785339 270.854950,416.822235 231.701218,416.809845
	C215.948120,416.804871 206.963120,407.740753 206.967255,391.996155
	C206.977158,354.341919 206.961334,316.687683 206.980759,279.033447
	C206.988297,264.417877 216.455338,255.095367 231.127472,255.098022
	C359.584991,255.121216 488.042480,255.133850 617.000000,255.149872
z"/>
<path fill="#011F26" opacity="1.000000" stroke="none"
	d="
M513.616272,531.057983
	C513.655334,535.049316 513.694336,539.040588 513.319885,543.654419
	C512.634766,546.031189 512.126709,547.785217 512.125610,549.539551
	C512.083618,615.911194 512.082275,682.282776 512.118408,748.654419
	C512.119385,750.424500 512.594482,752.194336 512.848450,753.964294
	C509.888641,764.204590 502.636719,770.079224 492.138275,770.132629
	C455.156494,770.320923 418.173920,770.439331 381.191772,770.411621
	C368.526764,770.402100 359.880646,761.032104 359.871857,747.727661
	C359.818359,666.763855 359.796539,585.800049 359.770844,504.836273
	C359.765442,487.843994 359.849670,470.851410 359.770447,453.859528
	C359.733582,445.948486 362.599213,439.618835 369.843323,434.967896
	C373.291962,434.240997 376.007599,433.000671 378.727203,432.991852
	C417.027802,432.867767 455.331726,432.682831 493.627136,433.145905
	C499.783722,433.220367 506.290222,435.660126 508.495605,443.273926
	C508.848480,444.492188 511.124939,445.153198 512.512146,446.071838
	C512.713989,446.784973 512.915833,447.498108 512.846802,448.905334
	C512.433411,450.071594 512.166870,450.543579 512.166138,451.015930
	C512.125244,476.592133 512.087708,502.168457 512.151001,527.744446
	C512.153748,528.850159 513.106201,529.953552 513.616272,531.057983
M509.704681,755.478943
	C509.867950,755.470947 510.031219,755.462891 510.194489,755.454834
	C510.086304,755.407288 509.978119,755.359680 509.704681,755.478943
z"/>
<path fill="#011F26" opacity="1.000000" stroke="none"
	d="
M513.034912,753.598755
	C512.594482,752.194336 512.119385,750.424500 512.118408,748.654419
	C512.082275,682.282776 512.083618,615.911194 512.125610,549.539551
	C512.126709,547.785217 512.634766,546.031189 513.245239,544.107544
	C513.681335,545.926941 513.863098,547.915649 513.863403,549.904419
	C513.875122,615.536011 513.875549,681.167664 513.839233,746.799255
	C513.838074,748.944031 513.436340,751.088623 513.034912,753.598755
z"/>
<path fill="#F2A71B" opacity="1.000000" stroke="none"
	d="
M685.637390,258.017090
	C684.173401,259.955200 682.402405,261.973694 680.546692,263.911133
	C676.662354,267.966675 674.972595,272.782440 674.977112,278.382294
	C675.017029,327.328674 675.000671,376.275055 674.995789,425.221466
	C674.995605,426.708801 674.944763,428.196381 674.894470,429.683044
	C674.891296,429.776978 674.687500,429.864136 674.576904,429.954468
	C674.344177,429.540070 674.111450,429.125671 673.757996,428.474487
	C673.503784,426.587646 673.253784,424.937531 673.253723,423.287445
	C673.251648,375.168762 673.272522,327.050079 673.295227,278.931396
	C673.299622,269.684937 676.939880,262.515320 685.637390,258.017090
z"/>
<path fill="#011F26" opacity="1.000000" stroke="none"
	d="
M512.474121,445.733582
	C511.124939,445.153198 508.848480,444.492188 508.495605,443.273926
	C506.290222,435.660126 499.783722,433.220367 493.627136,433.145905
	C455.331726,432.682831 417.027802,432.867767 378.727203,432.991852
	C376.007599,433.000671 373.291962,434.240997 370.165771,434.879089
	C373.960419,433.610809 378.155090,431.332245 382.368530,431.297089
	C418.282318,430.997223 454.199524,431.077850 490.115662,431.107239
	C500.536041,431.115784 508.417267,435.288605 512.474121,445.733582
z"/>
<path fill="#011F26" opacity="1.000000" stroke="none"
	d="
M513.728149,530.597534
	C513.106201,529.953552 512.153748,528.850159 512.151001,527.744446
	C512.087708,502.168457 512.125244,476.592133 512.166138,451.015930
	C512.166870,450.543579 512.433411,450.071594 512.845703,449.281067
	C513.367371,450.743591 513.835876,452.524139 513.838501,454.305420
	C513.875977,479.582581 513.850342,504.859833 513.728149,530.597534
z"/>
<path fill="#F2A71B" opacity="1.000000" stroke="none"
	d="
M688.629150,256.800903
	C688.203064,257.189087 687.437134,257.581024 686.322388,257.976959
	C686.745483,257.588867 687.517395,257.196747 688.629150,256.800903
z"/>
<path fill="#011F26" opacity="1.000000" stroke="none"
	d="
M509.787323,755.395508
	C509.978119,755.359680 510.086304,755.407288 510.194489,755.454834
	C510.031219,755.462891 509.867950,755.470947 509.787323,755.395508
z"/>
</svg>